<svg width="48" height="48" viewBox="0 0 48 48" fill="none" xmlns="http://www.w3.org/2000/svg">
<path d="M15.5 6H24L30.5 5.5L38 12.5L39 22L37 29L28 39.5C26.5 40.1667 23.4 41.4 23 41C22.6 40.6 14.8333 34.1667 11 31L9 23.5L9.5 13.5L15.5 6Z" fill="white" stroke="white"/>
<path fill-rule="evenodd" clip-rule="evenodd" d="M11.588 33.036C9.00969 30.5811 7.21722 27.4168 6.43728 23.9432C5.65734 20.4696 5.92496 16.8427 7.20629 13.5212C8.48763 10.1997 10.7251 7.33281 13.6358 5.28296C16.5466 3.23312 19.9998 2.09244 23.5588 2.00517C27.1178 1.9179 30.6227 2.88796 33.6304 4.79268C36.6381 6.6974 39.0134 9.45124 40.456 12.7059C41.8986 15.9606 42.3437 19.57 41.7349 23.0777C41.1261 26.5853 39.4909 29.8337 37.036 32.412L24.624 45.448L11.588 33.036V33.036ZM34.14 29.654L24.486 39.794L14.346 30.14C12.3407 28.2306 10.9467 25.7695 10.3401 23.0679C9.73353 20.3663 9.94168 17.5455 10.9382 14.9621C11.9348 12.3788 13.675 10.149 15.9388 8.55468C18.2026 6.96035 20.8884 6.07311 23.6564 6.00515C26.4244 5.93718 29.1505 6.69155 31.4898 8.17285C33.8291 9.65416 35.6767 11.7959 36.7988 14.3272C37.9209 16.8585 38.2673 19.6657 37.794 22.3938C37.3208 25.122 36.0492 27.6485 34.14 29.654V29.654Z" fill="#52B286"/>
<g clip-path="url(#clip0_627_956)">
<path d="M17 14.5C17 13.6716 17.5969 13 18.3333 13H26.3333C27.0694 13 27.6667 13.6716 27.6667 14.5V19.4688L26.4889 20H24.5556C24.3111 20 24.1111 20.225 24.1111 20.5V22.5C24.1111 22.5281 24.1139 22.5531 24.1167 22.5813C24.1806 24.3969 24.7861 27.1063 26.8583 28.8781C26.6972 28.9563 26.5194 29 26.3333 29H23.6667V26.5C23.6667 25.6719 23.0694 25 22.3333 25C21.5972 25 21 25.6719 21 26.5V29H18.3333C17.5969 29 17 28.3281 17 27.5V14.5ZM19.2222 20C18.9767 20 18.7778 20.225 18.7778 20.5V21.5C18.7778 21.775 18.9767 22 19.2222 22H20.1111C20.3556 22 20.5556 21.775 20.5556 21.5V20.5C20.5556 20.225 20.3556 20 20.1111 20H19.2222ZM21.4444 21.5C21.4444 21.775 21.6444 22 21.8889 22H22.7778C23.0222 22 23.2222 21.775 23.2222 21.5V20.5C23.2222 20.225 23.0222 20 22.7778 20H21.8889C21.6444 20 21.4444 20.225 21.4444 20.5V21.5ZM18.7778 17.5C18.7778 17.775 18.9767 18 19.2222 18H20.1111C20.3556 18 20.5556 17.775 20.5556 17.5V16.5C20.5556 16.225 20.3556 16 20.1111 16H19.2222C18.9767 16 18.7778 16.225 18.7778 16.5V17.5ZM21.8889 16C21.6444 16 21.4444 16.225 21.4444 16.5V17.5C21.4444 17.775 21.6444 18 21.8889 18H22.7778C23.0222 18 23.2222 17.775 23.2222 17.5V16.5C23.2222 16.225 23.0222 16 22.7778 16H21.8889ZM24.1111 17.5C24.1111 17.775 24.3111 18 24.5556 18H25.4444C25.6889 18 25.8889 17.775 25.8889 17.5V16.5C25.8889 16.225 25.6889 16 25.4444 16H24.5556C24.3111 16 24.1111 16.225 24.1111 16.5V17.5ZM28.7528 20.0531C28.9111 19.9812 29.0889 19.9812 29.2472 20.0531L32.5806 21.5531C32.8333 21.6688 33 21.9437 33 22.25C33 24.2281 32.2806 27.525 29.2556 28.9438C29.0917 29.0188 28.9083 29.0188 28.7444 28.9438C25.7194 27.525 25 24.2281 25 22.25C25 21.9437 25.1417 21.6688 25.4194 21.5531L28.7528 20.0531ZM29 21.5562V27.4281C30.8944 26.3969 31.5417 24.3344 31.65 22.7219L29 21.5562Z" fill="#52B286"/>
</g>
<defs>
<clipPath id="clip0_627_956">
<rect width="16" height="16" fill="white" transform="translate(17 13)"/>
</clipPath>
</defs>
</svg>
