<svg width="48" height="48" viewBox="0 0 48 48" fill="none" xmlns="http://www.w3.org/2000/svg">
<g clip-path="url(#clip0_628_1071)">
<path d="M15.5 6H24L30.5 5.5L38 12.5L39 22L37 29L28 39.5C26.5 40.1667 23.4 41.4 23 41C22.6 40.6 14.8333 34.1667 11 31L9 23.5L9.5 13.5L15.5 6Z" fill="white" stroke="white"/>
<path fill-rule="evenodd" clip-rule="evenodd" d="M11.588 33.036C9.00969 30.5811 7.21722 27.4168 6.43728 23.9432C5.65734 20.4696 5.92496 16.8427 7.20629 13.5212C8.48763 10.1997 10.7251 7.33281 13.6358 5.28296C16.5466 3.23312 19.9998 2.09244 23.5588 2.00517C27.1178 1.9179 30.6227 2.88796 33.6304 4.79268C36.6381 6.6974 39.0134 9.45124 40.456 12.7059C41.8986 15.9606 42.3437 19.57 41.7349 23.0777C41.1261 26.5853 39.4909 29.8337 37.036 32.412L24.624 45.448L11.588 33.036V33.036ZM34.14 29.654L24.486 39.794L14.346 30.14C12.3407 28.2306 10.9467 25.7695 10.3401 23.0679C9.73353 20.3663 9.94168 17.5455 10.9382 14.9621C11.9348 12.3788 13.675 10.149 15.9388 8.55468C18.2026 6.96035 20.8884 6.07311 23.6564 6.00515C26.4244 5.93718 29.1505 6.69155 31.4898 8.17285C33.8291 9.65416 35.6767 11.7959 36.7988 14.3272C37.9209 16.8585 38.2673 19.6657 37.794 22.3938C37.3208 25.122 36.0492 27.6485 34.14 29.654V29.654Z" fill="#52B286"/>
<path d="M29.0328 18.3313C28.7295 17.6486 28.2885 17.0358 27.7375 16.5313L27.2828 16.1141C27.2674 16.1003 27.2488 16.0906 27.2287 16.0856C27.2086 16.0807 27.1876 16.0808 27.1675 16.0859C27.1475 16.091 27.129 16.1009 27.1137 16.1148C27.0984 16.1288 27.0867 16.1462 27.0797 16.1657L26.8766 16.7485C26.75 17.1141 26.5172 17.4876 26.1875 17.8547C26.1656 17.8782 26.1406 17.8844 26.1234 17.886C26.1063 17.8876 26.0797 17.8844 26.0562 17.8626C26.0344 17.8438 26.0234 17.8157 26.025 17.7876C26.0828 16.8469 25.8016 15.786 25.1859 14.6313C24.6766 13.6719 23.9687 12.9235 23.0844 12.4016L22.4391 12.0219C22.3547 11.9719 22.2469 12.0376 22.2516 12.136L22.2859 12.886C22.3094 13.3985 22.25 13.8516 22.1094 14.2282C21.9375 14.6891 21.6906 15.1172 21.375 15.5016C21.1553 15.7687 20.9064 16.0104 20.6328 16.2219C19.9739 16.7284 19.4381 17.3775 19.0656 18.1204C18.694 18.8698 18.5005 19.6948 18.5 20.5313C18.5 21.2688 18.6453 21.9829 18.9328 22.6563C19.2104 23.3047 19.611 23.8931 20.1125 24.3891C20.6188 24.8891 21.2063 25.2829 21.8609 25.5563C22.5391 25.8407 23.2578 25.9844 24 25.9844C24.7422 25.9844 25.4609 25.8407 26.1391 25.5579C26.7921 25.286 27.386 24.8896 27.8875 24.3907C28.3937 23.8907 28.7906 23.3063 29.0672 22.6579C29.3543 21.9863 29.5015 21.2632 29.5 20.5329C29.5 19.7704 29.3437 19.0297 29.0328 18.3313V18.3313Z" fill="#52B286"/>
</g>
<defs>
<clipPath id="clip0_628_1071">
<rect width="48" height="48" fill="white"/>
</clipPath>
</defs>
</svg>
