<svg width="48" height="48" viewBox="0 0 48 48" fill="none" xmlns="http://www.w3.org/2000/svg">
<g clip-path="url(#clip0_627_1009)">
<path d="M15.5 6H24L30.5 5.5L38 12.5L39 22L37 29L28 39.5C26.5 40.1667 23.4 41.4 23 41C22.6 40.6 14.8333 34.1667 11 31L9 23.5L9.5 13.5L15.5 6Z" fill="white" stroke="white"/>
<path fill-rule="evenodd" clip-rule="evenodd" d="M11.588 33.036C9.00969 30.5811 7.21722 27.4168 6.43728 23.9432C5.65734 20.4696 5.92496 16.8427 7.20629 13.5212C8.48763 10.1997 10.7251 7.33281 13.6358 5.28296C16.5466 3.23312 19.9998 2.09244 23.5588 2.00517C27.1178 1.9179 30.6227 2.88796 33.6304 4.79268C36.6381 6.6974 39.0134 9.45124 40.456 12.7059C41.8986 15.9606 42.3437 19.57 41.7349 23.0777C41.1261 26.5853 39.4909 29.8337 37.036 32.412L24.624 45.448L11.588 33.036V33.036ZM34.14 29.654L24.486 39.794L14.346 30.14C12.3407 28.2306 10.9467 25.7695 10.3401 23.0679C9.73353 20.3663 9.94168 17.5455 10.9382 14.9621C11.9348 12.3788 13.675 10.149 15.9388 8.55468C18.2026 6.96035 20.8884 6.07311 23.6564 6.00515C26.4244 5.93718 29.1505 6.69155 31.4898 8.17285C33.8291 9.65416 35.6767 11.7959 36.7988 14.3272C37.9209 16.8585 38.2673 19.6657 37.794 22.3938C37.3208 25.122 36.0492 27.6485 34.14 29.654V29.654Z" fill="#52B286"/>
<path d="M28.4467 24.6667C27.1467 24.6667 27.0534 25.3334 26.2267 25.3334C25.4334 25.3334 25.28 24.6667 24.0067 24.6667C22.7067 24.6667 22.6067 25.3334 21.78 25.3334C20.9534 25.3334 20.86 24.6667 19.56 24.6667C18.26 24.6667 18.16 25.3334 17.3334 25.3334V26.6667C18.6334 26.6667 18.74 26 19.56 26C20.3867 26 20.48 26.6667 21.78 26.6667C23.08 26.6667 23.18 26 24.0067 26C24.82 26 24.94 26.6667 26.2267 26.6667C27.5134 26.6667 27.6267 26 28.4467 26C29.26 26 29.38 26.6667 30.6667 26.6667V25.3334C29.84 25.3334 29.7467 24.6667 28.4467 24.6667ZM21.7867 23.6667C23.0867 23.6667 23.18 23 24.0067 23C24.8 23 24.9534 23.6667 26.2267 23.6667C27.5267 23.6667 27.62 23 28.4467 23C29.24 23 29.38 23.6534 30.6534 23.6667V22.3334C30.2334 22.3334 29.9867 22.1467 29.6667 21.9667L28.32 16.9467L29.7134 17.5134L30.2067 16.2734L22.52 13.3334L17.3334 19.74L18.38 20.56L19.3067 19.3734L19.9267 21.6934C19.8067 21.68 19.6934 21.66 19.5534 21.66C18.2534 21.66 18.16 22.3267 17.3334 22.3267V23.66C18.6 23.66 18.78 22.9934 19.5667 22.9934C20.36 23 20.5134 23.6667 21.7867 23.6667V23.6667ZM25.36 18.7867L26.3067 22.3267C25.4134 22.3867 25.3267 21.6667 23.9934 21.6667C23.7534 21.6667 23.56 21.6934 23.3867 21.7334L22.78 19.4734L25.36 18.7867V18.7867Z" fill="#52B286"/>
</g>
<defs>
<clipPath id="clip0_627_1009">
<rect width="48" height="48" fill="white"/>
</clipPath>
</defs>
</svg>
