<svg width="48" height="48" viewBox="0 0 48 48" fill="none" xmlns="http://www.w3.org/2000/svg">
<g clip-path="url(#clip0_628_1086)">
<path d="M15.5 6H24L30.5 5.5L38 12.5L39 22L37 29L28 39.5C26.5 40.1667 23.4 41.4 23 41C22.6 40.6 14.8333 34.1667 11 31L9 23.5L9.5 13.5L15.5 6Z" fill="white" stroke="white"/>
<path fill-rule="evenodd" clip-rule="evenodd" d="M11.588 33.036C9.00969 30.5811 7.21722 27.4168 6.43728 23.9432C5.65734 20.4696 5.92496 16.8427 7.20629 13.5212C8.48763 10.1997 10.7251 7.33281 13.6358 5.28296C16.5466 3.23312 19.9998 2.09244 23.5588 2.00517C27.1178 1.9179 30.6227 2.88796 33.6304 4.79268C36.6381 6.6974 39.0134 9.45124 40.456 12.7059C41.8986 15.9606 42.3437 19.57 41.7349 23.0777C41.1261 26.5853 39.4909 29.8337 37.036 32.412L24.624 45.448L11.588 33.036V33.036ZM34.14 29.654L24.486 39.794L14.346 30.14C12.3407 28.2306 10.9467 25.7695 10.3401 23.0679C9.73353 20.3663 9.94168 17.5455 10.9382 14.9621C11.9348 12.3788 13.675 10.149 15.9388 8.55468C18.2026 6.96035 20.8884 6.07311 23.6564 6.00515C26.4244 5.93718 29.1505 6.69155 31.4898 8.17285C33.8291 9.65416 35.6767 11.7959 36.7988 14.3272C37.9209 16.8585 38.2673 19.6657 37.794 22.3938C37.3208 25.122 36.0492 27.6485 34.14 29.654V29.654Z" fill="#52B286"/>
<g clip-path="url(#clip1_628_1086)">
<path d="M20.176 23.032C20.2999 23.0787 20.4002 23.1726 20.455 23.2932C20.5097 23.4137 20.5144 23.551 20.468 23.675L18.968 27.675C18.9182 27.7944 18.8241 27.8899 18.7054 27.9413C18.5867 27.9927 18.4527 27.9961 18.3315 27.9508C18.2103 27.9055 18.1114 27.815 18.0556 27.6983C17.9997 27.5816 17.9913 27.4478 18.032 27.325L19.532 23.325C19.5551 23.2635 19.59 23.2071 19.6348 23.159C19.6796 23.111 19.7335 23.0723 19.7933 23.0451C19.8531 23.0178 19.9177 23.0027 19.9834 23.0005C20.0491 22.9982 20.1145 23.009 20.176 23.032V23.032ZM23.176 23.032C23.2999 23.0787 23.4002 23.1726 23.455 23.2932C23.5097 23.4137 23.5144 23.551 23.468 23.675L21.968 27.675C21.9182 27.7944 21.8241 27.8899 21.7054 27.9413C21.5867 27.9927 21.4527 27.9961 21.3315 27.9508C21.2103 27.9055 21.1114 27.815 21.0556 27.6983C20.9997 27.5816 20.9913 27.4478 21.032 27.325L22.532 23.325C22.5551 23.2635 22.59 23.2071 22.6348 23.159C22.6796 23.111 22.7335 23.0723 22.7933 23.0451C22.8531 23.0178 22.9177 23.0027 22.9834 23.0005C23.0491 22.9982 23.1145 23.009 23.176 23.032V23.032ZM26.176 23.032C26.2999 23.0787 26.4002 23.1726 26.455 23.2932C26.5097 23.4137 26.5144 23.551 26.468 23.675L24.968 27.675C24.9182 27.7944 24.8241 27.8899 24.7054 27.9413C24.5867 27.9927 24.4527 27.9961 24.3315 27.9508C24.2103 27.9055 24.1114 27.815 24.0556 27.6983C23.9997 27.5816 23.9913 27.4478 24.032 27.325L25.532 23.325C25.5551 23.2635 25.59 23.2071 25.6348 23.159C25.6796 23.111 25.7335 23.0723 25.7933 23.0451C25.8531 23.0178 25.9177 23.0027 25.9834 23.0005C26.0491 22.9982 26.1145 23.009 26.176 23.032V23.032ZM29.176 23.032C29.2999 23.0787 29.4002 23.1726 29.455 23.2932C29.5097 23.4137 29.5144 23.551 29.468 23.675L27.968 27.675C27.9182 27.7944 27.8241 27.8899 27.7054 27.9413C27.5867 27.9927 27.4527 27.9961 27.3315 27.9508C27.2103 27.9055 27.1114 27.815 27.0556 27.6983C26.9997 27.5816 26.9913 27.4478 27.032 27.325L28.532 23.325C28.5551 23.2635 28.59 23.2071 28.6348 23.159C28.6796 23.111 28.7335 23.0723 28.7933 23.0451C28.8531 23.0178 28.9177 23.0027 28.9834 23.0005C29.0491 22.9982 29.1145 23.009 29.176 23.032V23.032ZM29.405 16.027C29.1974 14.9802 28.6603 14.0273 27.8722 13.3075C27.0842 12.5878 26.0866 12.139 25.0253 12.0269C23.964 11.9147 22.8946 12.145 21.9735 12.6841C21.0524 13.2231 20.328 14.0428 19.906 15.023C19.4329 14.9685 18.9536 15.0112 18.4975 15.1484C18.0414 15.2855 17.618 15.5144 17.2534 15.8208C16.8888 16.1273 16.5906 16.5049 16.3771 16.9307C16.1635 17.3564 16.0391 17.8212 16.0114 18.2967C15.9837 18.7722 16.0534 19.2483 16.2162 19.696C16.3789 20.1436 16.6313 20.5533 16.9579 20.9C17.2845 21.2467 17.6784 21.523 18.1155 21.7122C18.5526 21.9014 19.0238 21.9993 19.5 22H29C29.7612 22.0009 30.4941 21.7125 31.0505 21.1931C31.6069 20.6738 31.9451 19.9624 31.9966 19.203C32.0481 18.4436 31.809 17.6931 31.3278 17.1034C30.8466 16.5137 30.1593 16.1289 29.405 16.027V16.027Z" fill="#52B286"/>
</g>
</g>
<defs>
<clipPath id="clip0_628_1086">
<rect width="48" height="48" fill="white"/>
</clipPath>
<clipPath id="clip1_628_1086">
<rect width="16" height="16" fill="white" transform="translate(16 12)"/>
</clipPath>
</defs>
</svg>
