<svg width="48" height="48" viewBox="0 0 48 48" fill="none" xmlns="http://www.w3.org/2000/svg">
<g clip-path="url(#clip0_627_1029)">
<path d="M15.5 6H24L30.5 5.5L38 12.5L39 22L37 29L28 39.5C26.5 40.1667 23.4 41.4 23 41C22.6 40.6 14.8333 34.1667 11 31L9 23.5L9.5 13.5L15.5 6Z" fill="white" stroke="white"/>
<path fill-rule="evenodd" clip-rule="evenodd" d="M11.588 33.036C9.00969 30.5811 7.21722 27.4168 6.43728 23.9432C5.65734 20.4696 5.92496 16.8427 7.20629 13.5212C8.48763 10.1997 10.7251 7.33281 13.6358 5.28296C16.5466 3.23312 19.9998 2.09244 23.5588 2.00517C27.1178 1.9179 30.6227 2.88796 33.6304 4.79268C36.6381 6.6974 39.0134 9.45124 40.456 12.7059C41.8986 15.9606 42.3437 19.57 41.7349 23.0777C41.1261 26.5853 39.4909 29.8337 37.036 32.412L24.624 45.448L11.588 33.036V33.036ZM34.14 29.654L24.486 39.794L14.346 30.14C12.3407 28.2306 10.9467 25.7695 10.3401 23.0679C9.73353 20.3663 9.94168 17.5455 10.9382 14.9621C11.9348 12.3788 13.675 10.149 15.9388 8.55468C18.2026 6.96035 20.8884 6.07311 23.6564 6.00515C26.4244 5.93718 29.1505 6.69155 31.4898 8.17285C33.8291 9.65416 35.6767 11.7959 36.7988 14.3272C37.9209 16.8585 38.2673 19.6657 37.794 22.3938C37.3208 25.122 36.0492 27.6485 34.14 29.654V29.654Z" fill="#52B286"/>
<path d="M26.3134 21.1933L24.5934 20.5067L20 22.0333L17.3334 21.0067V22.4067L20 23.3L26.3134 21.1933ZM23.0467 19.6133L21.3334 17.3333H17.3334V19.74L20 20.6333L23.0467 19.6133ZM20 24.7L17.3334 23.8133V26.6667H30.6667L27.3534 22.2533L20 24.7ZM27.3334 16V12.6667L24 12L22 13.3333V16L24 17.3333L27.3334 16ZM28.3334 16.6667L26.6667 18V20L28.3334 21.3333L31.3334 20V17.3333L28.3334 16.6667Z" fill="#52B286"/>
</g>
<defs>
<clipPath id="clip0_627_1029">
<rect width="48" height="48" fill="white"/>
</clipPath>
</defs>
</svg>
