<svg width="48" height="48" viewBox="0 0 48 48" fill="none" xmlns="http://www.w3.org/2000/svg">
<g clip-path="url(#clip0_628_1106)">
<path d="M15.5 6H24L30.5 5.5L38 12.5L39 22L37 29L28 39.5C26.5 40.1667 23.4 41.4 23 41C22.6 40.6 14.8333 34.1667 11 31L9 23.5L9.5 13.5L15.5 6Z" fill="white" stroke="white"/>
<path fill-rule="evenodd" clip-rule="evenodd" d="M11.588 33.036C9.00969 30.5811 7.21722 27.4168 6.43728 23.9432C5.65734 20.4696 5.92496 16.8427 7.20629 13.5212C8.48763 10.1997 10.7251 7.33281 13.6358 5.28296C16.5466 3.23312 19.9998 2.09244 23.5588 2.00517C27.1178 1.9179 30.6227 2.88796 33.6304 4.79268C36.6381 6.6974 39.0134 9.45124 40.456 12.7059C41.8986 15.9606 42.3437 19.57 41.7349 23.0777C41.1261 26.5853 39.4909 29.8337 37.036 32.412L24.624 45.448L11.588 33.036V33.036ZM34.14 29.654L24.486 39.794L14.346 30.14C12.3407 28.2306 10.9467 25.7695 10.3401 23.0679C9.73353 20.3663 9.94168 17.5455 10.9382 14.9621C11.9348 12.3788 13.675 10.149 15.9388 8.55468C18.2026 6.96035 20.8884 6.07311 23.6564 6.00515C26.4244 5.93718 29.1505 6.69155 31.4898 8.17285C33.8291 9.65416 35.6767 11.7959 36.7988 14.3272C37.9209 16.8585 38.2673 19.6657 37.794 22.3938C37.3208 25.122 36.0492 27.6485 34.14 29.654V29.654Z" fill="#52B286"/>
<path d="M28.1067 22.9867C26.2667 24.16 24.9934 23.5 24.3667 23.04C24.2572 22.9629 24.1262 22.9221 23.9923 22.9233C23.8584 22.9245 23.7282 22.9676 23.62 23.0467C22.9734 23.5133 21.7334 24.1467 19.92 23.0067C19.7 22.8667 19.42 22.8533 19.2067 23C18.6 23.4067 18.1867 23.5667 17.8734 23.6267C17.56 23.6867 17.3334 23.96 17.3334 24.2733C17.3334 24.6733 17.6934 25 18.0867 24.9267C18.6 24.8333 19.0934 24.6467 19.5534 24.3733C20.2274 24.7694 20.9949 24.9783 21.7767 24.9783C22.5585 24.9783 23.3261 24.7694 24 24.3733C24.6729 24.7726 25.4409 24.9834 26.2234 24.9834C27.0058 24.9834 27.7738 24.7726 28.4467 24.3733C28.9067 24.6467 29.4067 24.8333 29.92 24.9267C30.3134 25 30.6734 24.6733 30.6734 24.2733V24.2667C30.6734 23.9533 30.4534 23.68 30.14 23.62C29.8134 23.5533 29.4 23.3933 28.7934 22.9933C28.6914 22.9271 28.5726 22.8913 28.451 22.8901C28.3294 22.8889 28.21 22.9224 28.1067 22.9867V22.9867ZM28.8867 19H30C30.3667 19 30.6667 18.7 30.6667 18.3333C30.6667 17.9667 30.3667 17.6667 30 17.6667H28.9267C27.6867 17.6667 26.66 16.6667 26.6667 15.4267C26.6667 15.18 26.7067 14.96 26.7734 14.7267C27.02 13.8667 26.4 13.02 25.5134 13H25.3334C20.9067 13 17.4334 16.3533 17.34 20.6667V20.6867C17.3134 21.44 18.0534 22.0067 18.7667 21.7533C19.0334 21.66 19.2867 21.54 19.5334 21.3933C20.92 22.1933 22.6267 22.2067 24 21.38C24.6729 21.7793 25.4409 21.99 26.2234 21.99C27.0058 21.99 27.7738 21.7793 28.4467 21.38C28.9 21.6533 29.3934 21.8333 29.9 21.9267C29.9951 21.9432 30.0927 21.9388 30.1859 21.9135C30.2791 21.8883 30.3656 21.8429 30.4393 21.7806C30.5131 21.7183 30.5722 21.6406 30.6127 21.553C30.6531 21.4653 30.6738 21.3699 30.6734 21.2733V21.2667C30.6734 20.96 30.46 20.68 30.1534 20.62C29.8267 20.56 29.4067 20.4 28.8 19.9933C28.6968 19.9239 28.5755 19.8862 28.451 19.885C28.3266 19.8838 28.2046 19.9192 28.1 19.9867C26.28 21.1467 25.0134 20.5 24.38 20.0467C24.2682 19.9644 24.1333 19.9194 23.9945 19.9182C23.8556 19.917 23.7199 19.9596 23.6067 20.04C23.5067 20.1133 23.5467 20.08 23.3934 20.1733C22.9267 19.5467 22.6667 18.8 22.6667 18C22.6667 16.28 23.8467 14.84 25.4734 14.4467C25.3867 14.7867 25.3334 15.1267 25.3334 15.4467C25.3334 17.4067 26.9267 19 28.8867 19Z" fill="#52B286"/>
</g>
<defs>
<clipPath id="clip0_628_1106">
<rect width="48" height="48" fill="white"/>
</clipPath>
</defs>
</svg>
