<svg width="48" height="48" viewBox="0 0 48 48" fill="none" xmlns="http://www.w3.org/2000/svg">
<g clip-path="url(#clip0_627_967)">
<path d="M15.5 6H24L30.5 5.5L38 12.5L39 22L37 29L28 39.5C26.5 40.1667 23.4 41.4 23 41C22.6 40.6 14.8333 34.1667 11 31L9 23.5L9.5 13.5L15.5 6Z" fill="white" stroke="white"/>
<path fill-rule="evenodd" clip-rule="evenodd" d="M11.588 33.036C9.00969 30.5811 7.21722 27.4168 6.43728 23.9432C5.65734 20.4696 5.92496 16.8427 7.20629 13.5212C8.48763 10.1997 10.7251 7.33281 13.6358 5.28296C16.5466 3.23312 19.9998 2.09244 23.5588 2.00517C27.1178 1.9179 30.6227 2.88796 33.6304 4.79268C36.6381 6.6974 39.0134 9.45124 40.456 12.7059C41.8986 15.9606 42.3437 19.57 41.7349 23.0777C41.1261 26.5853 39.4909 29.8337 37.036 32.412L24.624 45.448L11.588 33.036V33.036ZM34.14 29.654L24.486 39.794L14.346 30.14C12.3407 28.2306 10.9467 25.7695 10.3401 23.0679C9.73353 20.3663 9.94168 17.5455 10.9382 14.9621C11.9348 12.3788 13.675 10.149 15.9388 8.55468C18.2026 6.96035 20.8884 6.07311 23.6564 6.00515C26.4244 5.93718 29.1505 6.69155 31.4898 8.17285C33.8291 9.65416 35.6767 11.7959 36.7988 14.3272C37.9209 16.8585 38.2673 19.6657 37.794 22.3938C37.3208 25.122 36.0492 27.6485 34.14 29.654V29.654Z" fill="#52B286"/>
<g clip-path="url(#clip1_627_967)">
<path d="M197.14 62.62L197.18 62.58C194.16 60.38 194.26 58.38 195.72 57C197 55.78 199.5 55.02 199.5 55.02C238.7 46.08 270.32 66.2 270.32 66.2C237.5 23.2 175.4 11.92 115.92 42.04C76.9601 61 62.6801 90.22 62.6801 90.22L62.8001 90.2C53.7801 104.68 48.5001 121.72 48.5001 140C48.5001 172.04 64.4801 200.3 88.8601 217.4L88.8201 217.44C91.8401 219.62 91.7401 221.64 90.2801 223.02C89.0001 224.24 86.5001 225 86.5001 225C47.2801 233.94 15.6801 213.82 15.6801 213.82C48.5001 256.84 110.6 268.1 170.08 237.98C209.04 219.02 223.34 189.78 223.34 189.78L223.2 189.8C232.22 175.32 237.5 158.28 237.5 139.98C237.5 107.96 221.52 79.7 197.14 62.62V62.62ZM104.02 139.98C104.02 118.46 121.48 101 143 101C164.52 101 181.98 118.46 181.98 139.98C181.98 161.52 164.52 178.98 143 178.98C121.46 178.98 104.02 161.54 104.02 139.98V139.98Z" fill="#006CA2"/>
<path d="M26.75 15.5925C28.145 16.395 29 17.8875 29 19.5C29 27 20 27 20 27C20.9375 26.295 21.785 25.4625 22.505 24.5325C22.5734 24.4456 22.6214 24.3446 22.6458 24.2368C22.6701 24.1289 22.67 24.017 22.6456 23.9092C22.6212 23.8014 22.573 23.7004 22.5045 23.6136C22.4361 23.5268 22.3491 23.4564 22.25 23.4075C20.855 22.605 20 21.1125 20 19.5C20 12 29 12 29 12C28.0625 12.705 27.215 13.5375 26.495 14.4675C26.4266 14.5544 26.3786 14.6554 26.3542 14.7632C26.3299 14.8711 26.33 14.983 26.3544 15.0908C26.3788 15.1986 26.427 15.2996 26.4955 15.3864C26.5639 15.4732 26.6509 15.5436 26.75 15.5925M24.5 21C24.8978 21 25.2794 20.842 25.5607 20.5607C25.842 20.2794 26 19.8978 26 19.5C26 19.1022 25.842 18.7206 25.5607 18.4393C25.2794 18.158 24.8978 18 24.5 18C24.1022 18 23.7206 18.158 23.4393 18.4393C23.158 18.7206 23 19.1022 23 19.5C23 19.8978 23.158 20.2794 23.4393 20.5607C23.7206 20.842 24.1022 21 24.5 21Z" fill="#52B286"/>
</g>
</g>
<defs>
<clipPath id="clip0_627_967">
<rect width="48" height="48" fill="white"/>
</clipPath>
<clipPath id="clip1_627_967">
<rect width="18" height="18" fill="white" transform="translate(15 12)"/>
</clipPath>
</defs>
</svg>
