<svg width="48" height="48" viewBox="0 0 48 48" fill="none" xmlns="http://www.w3.org/2000/svg">
<g clip-path="url(#clip0_627_1019)">
<path d="M15.5 6H24L30.5 5.5L38 12.5L39 22L37 29L28 39.5C26.5 40.1667 23.4 41.4 23 41C22.6 40.6 14.8333 34.1667 11 31L9 23.5L9.5 13.5L15.5 6Z" fill="white" stroke="white"/>
<path fill-rule="evenodd" clip-rule="evenodd" d="M11.588 33.036C9.00969 30.5811 7.21722 27.4168 6.43728 23.9432C5.65734 20.4696 5.92496 16.8427 7.20629 13.5212C8.48763 10.1997 10.7251 7.33281 13.6358 5.28296C16.5466 3.23312 19.9998 2.09244 23.5588 2.00517C27.1178 1.9179 30.6227 2.88796 33.6304 4.79268C36.6381 6.6974 39.0134 9.45124 40.456 12.7059C41.8986 15.9606 42.3437 19.57 41.7349 23.0777C41.1261 26.5853 39.4909 29.8337 37.036 32.412L24.624 45.448L11.588 33.036V33.036ZM34.14 29.654L24.486 39.794L14.346 30.14C12.3407 28.2306 10.9467 25.7695 10.3401 23.0679C9.73353 20.3663 9.94168 17.5455 10.9382 14.9621C11.9348 12.3788 13.675 10.149 15.9388 8.55468C18.2026 6.96035 20.8884 6.07311 23.6564 6.00515C26.4244 5.93718 29.1505 6.69155 31.4898 8.17285C33.8291 9.65416 35.6767 11.7959 36.7988 14.3272C37.9209 16.8585 38.2673 19.6657 37.794 22.3938C37.3208 25.122 36.0492 27.6485 34.14 29.654V29.654Z" fill="#52B286"/>
<g clip-path="url(#clip1_627_1019)">
<path d="M25.5125 18H22.4875C22.1782 18 21.8907 18.1406 21.7 18.3844L19.9616 20.6031L20.3757 21.1187C20.6782 21.5 21.3188 21.5 21.6282 21.1187C21.9641 20.6969 22.4641 20.4547 23.0072 20.4469C23.5425 20.4 24.0541 20.6656 24.4057 21.0719L25.3941 22.2244C25.6988 22.58 26.3044 22.58 26.6128 22.2244L28.0232 20.58L26.3044 18.3847C26.1094 18.1406 25.8219 18 25.5125 18ZM20.9719 15.5C21.3744 15.5 21.7453 15.3789 22.0578 15.1756L22.9719 17H24.9719L25.886 15.1756C26.2282 15.3781 26.5969 15.5 27 15.5C28.1016 15.5 29 14.6016 29 13.5C29 12.3984 28.1016 11.5 27 11.5C26.5078 11.5 26.0625 11.6836 25.711 11.9806C25.3625 11.3984 24.7313 11 23.9719 11C23.2688 11 22.6375 11.3984 22.2875 11.9806C21.9094 11.6837 21.4907 11.5 20.9719 11.5C19.8703 11.5 18.9719 12.3984 18.9719 13.5C18.9719 14.6016 19.8969 15.5 20.9719 15.5V15.5ZM31.7969 25.4L28.6469 21.3813L27.3657 22.8697C27.025 23.2687 26.525 23.5 26 23.5C25.475 23.5 24.9766 23.2734 24.6328 22.8672L23.6438 21.7188C23.4907 21.5406 23.2688 21.4375 23.0344 21.4375H23.0219C22.7797 21.4453 22.5569 21.5547 22.4085 21.7422C21.7169 22.6016 20.2794 22.6016 19.5919 21.7422L19.3302 21.4103L16.202 25.3978C15.7064 26.0594 16.179 27 17.0032 27H31C31.8219 27 32.2938 26.0594 31.7969 25.4V25.4Z" fill="#52B286"/>
</g>
</g>
<defs>
<clipPath id="clip0_627_1019">
<rect width="48" height="48" fill="white"/>
</clipPath>
<clipPath id="clip1_627_1019">
<rect width="16" height="16" fill="white" transform="translate(16 11)"/>
</clipPath>
</defs>
</svg>
