<svg width="80" height="85" viewBox="0 0 80 85" fill="none" xmlns="http://www.w3.org/2000/svg">
<rect y="0.0512695" width="80" height="84.6722" rx="10" fill="white"/>
<path d="M35.3496 35.9472H46.5152V27.1347C44.7599 24.8373 37.3235 25.046 35.3496 27.1347V35.9472Z" fill="#52B286"/>
<path d="M66.0731 16.7015C58.462 11.9267 49.7777 9.40729 40.9302 9.40729C32.0827 9.40729 23.3982 11.9267 15.7873 16.7015C14.4403 21.2054 13.7017 27.0895 13.7017 32.1554C13.7017 49.7937 22.6179 65.8908 35.3495 72.5863C37.1419 73.5302 39.0097 74.304 40.931 74.8996C42.8535 74.3044 44.7222 73.5298 46.5151 72.5849C59.2442 65.8903 68.1629 49.7929 68.1629 32.1554C68.1625 27.0895 67.418 21.2054 66.0731 16.7015ZM49.47 56.1631L46.5151 65.932V41.8591C44.7598 39.56 37.3233 39.7696 35.3495 41.8591V65.932L32.395 56.1507C27.1384 50.0791 23.2728 41.4966 23.2728 32.1554C23.2706 29.6167 23.5091 27.0841 23.9846 24.5957C29.2846 21.9514 35.0715 20.5802 40.9308 20.5802C46.7902 20.5802 52.5771 21.9514 57.877 24.5957C58.3544 27.0838 58.5943 29.6165 58.5931 32.1554C58.5922 41.5028 54.7325 50.0902 49.47 56.1631Z" fill="#52B286"/>
</svg>
