<svg width="133" height="110" viewBox="0 0 133 110" fill="none" xmlns="http://www.w3.org/2000/svg">
<path d="M4.19699 74.6978L12.9211 74.7451C17.4796 74.7451 21.488 76.4014 24.9462 79.7139C28.4044 82.9949 30.1335 87.0488 30.1335 91.8757C30.1335 96.671 28.4358 100.788 25.0405 104.227C21.6766 107.665 17.5897 109.385 12.7796 109.385H4.14984C2.23211 109.385 1.03746 108.99 0.565887 108.202C0.188629 107.539 0 106.53 0 105.173V78.8621C0 78.105 0.0157191 77.5529 0.0471572 77.2058C0.110033 76.8588 0.267224 76.4487 0.51873 75.9755C0.958864 75.1237 2.18495 74.6978 4.19699 74.6978ZM12.9211 101.009C15.1846 101.009 17.2281 100.173 19.0515 98.5008C20.8749 96.7972 21.7866 94.6677 21.7866 92.1123C21.7866 89.5569 20.8907 87.4274 19.0987 85.7238C17.3381 83.9887 15.2632 83.1211 12.8739 83.1211H8.34683V101.009H12.9211Z" fill="#52B286"/>
<path d="M49.4256 74.3192C54.0784 74.3192 58.1182 76.007 61.545 79.3827C64.9717 82.7583 66.6851 86.9542 66.6851 91.9703C66.6851 96.9549 65.0503 101.214 61.7808 104.747C58.5112 108.249 54.4871 110 49.7085 110C44.9299 110 40.8587 108.265 37.4948 104.795C34.1623 101.324 32.4961 97.1915 32.4961 92.3962C32.4961 89.7777 32.9677 87.3328 33.9108 85.0613C34.854 82.7583 36.1115 80.8339 37.6834 79.288C39.2553 77.7422 41.063 76.5276 43.1065 75.6442C45.15 74.7609 47.2563 74.3192 49.4256 74.3192ZM40.843 92.1596C40.843 94.9674 41.7389 97.2546 43.5309 99.0213C45.3543 100.756 47.3821 101.624 49.6142 101.624C51.8463 101.624 53.8584 100.772 55.6503 99.0686C57.4423 97.365 58.3383 95.0778 58.3383 92.2069C58.3383 89.3361 57.4266 87.0331 55.6032 85.2979C53.8112 83.5628 51.7992 82.6952 49.5671 82.6952C47.3349 82.6952 45.3229 83.5786 43.5309 85.3452C41.7389 87.0804 40.843 89.3518 40.843 92.1596Z" fill="#52B286"/>
<path d="M96.224 103.564C96.6956 104.7 96.9313 105.52 96.9313 106.025C96.9313 107.224 95.9568 108.233 94.0076 109.054C93.0016 109.495 92.1842 109.716 91.5554 109.716C90.9581 109.716 90.4551 109.574 90.0464 109.29C89.6691 108.975 89.3862 108.659 89.1976 108.344C88.8832 107.744 87.6571 104.889 85.5193 99.7785L84.0574 99.8731H78.1156V105.22C78.1156 105.946 78.0842 106.498 78.0213 106.877C77.9898 107.224 77.8484 107.634 77.5969 108.107C77.1567 108.959 75.9306 109.385 73.9186 109.385C71.7179 109.385 70.429 108.801 70.0517 107.634C69.8631 107.098 69.7688 106.277 69.7688 105.173V78.9094C69.7688 78.1838 69.7845 77.6475 69.8159 77.3005C69.8788 76.9219 70.036 76.496 70.2875 76.0228C70.7276 75.171 71.9537 74.7451 73.9658 74.7451H84.1517C86.9183 74.7451 89.6062 75.7546 92.2156 77.7737C93.4731 78.7517 94.5106 80.0767 95.328 81.7488C96.1454 83.4208 96.5541 85.2821 96.5541 87.3328C96.5541 90.8977 95.3752 93.8316 93.0173 96.1347C93.7089 97.8067 94.7778 100.283 96.224 103.564ZM78.1156 91.4971H84.1517C85.0634 91.4971 85.9751 91.1501 86.8868 90.456C87.7986 89.762 88.2544 88.7209 88.2544 87.3328C88.2544 85.9446 87.7986 84.9036 86.8868 84.2095C85.9751 83.4839 85.032 83.1211 84.0574 83.1211H78.1156V91.4971Z" fill="#52B286"/>
<path d="M119.466 77.2058L132.198 103.612C132.733 104.684 133 105.489 133 106.025C133 107.161 132.088 108.186 130.265 109.101C129.196 109.637 128.347 109.905 127.718 109.905C127.121 109.905 126.618 109.763 126.209 109.479C125.832 109.196 125.549 108.896 125.361 108.58C125.203 108.265 124.968 107.792 124.653 107.161L122.201 102.05H109.138L106.686 107.161C106.372 107.792 106.12 108.249 105.932 108.533C105.775 108.817 105.492 109.117 105.083 109.432C104.706 109.716 104.203 109.858 103.574 109.858C102.977 109.858 102.143 109.59 101.075 109.054C99.2511 108.17 98.3394 107.161 98.3394 106.025C98.3394 105.489 98.6066 104.684 99.1411 103.612L111.874 77.1585C112.219 76.4329 112.738 75.8493 113.43 75.4076C114.153 74.9659 114.907 74.7451 115.693 74.7451C117.391 74.7451 118.648 75.5654 119.466 77.2058ZM115.646 88.5631L112.534 95.0462H118.806L115.646 88.5631Z" fill="#52B286"/>
<path d="M58.032 27.9659H70.4413V18.6798C68.4905 16.259 60.2257 16.4789 58.032 18.6798V27.9659Z" fill="#52B286"/>
<path d="M92.1778 7.68608C83.719 2.65482 74.0673 0 64.2343 0C54.4013 0 44.7495 2.65482 36.2908 7.68608C34.7938 12.4321 33.9729 18.6322 33.9729 23.9704C33.9729 42.5564 43.8822 59.5184 58.032 66.5736C60.0241 67.5683 62.0999 68.3836 64.2353 69.0113C66.3718 68.3841 68.4487 67.5678 70.4413 66.5722C84.5883 59.5179 94.5004 42.5555 94.5004 23.9704C94.5 18.6322 93.6726 12.4321 92.1778 7.68608ZM73.7253 49.268L70.4413 59.5618V34.1955C68.4905 31.7728 60.2257 31.9937 58.032 34.1955V59.5618L54.7484 49.2549C48.9063 42.8572 44.6101 33.8135 44.6101 23.9704C44.6077 21.2952 44.8727 18.6266 45.4012 16.0045C51.2915 13.2181 57.723 11.7732 64.235 11.7732C70.747 11.7732 77.1785 13.2181 83.0689 16.0045C83.5994 18.6263 83.866 21.295 83.8646 23.9704C83.8637 33.82 79.574 42.8688 73.7253 49.268Z" fill="#52B286"/>
</svg>
