<svg width="24" height="24" viewBox="0 0 24 24" fill="none" xmlns="http://www.w3.org/2000/svg">
<path d="M21.5531 4C21.4622 3.99064 21.3706 3.99064 21.2798 4H2.6131C2.49346 4.00184 2.37462 4.01978 2.25977 4.05333L11.8931 13.6467L21.5531 4Z" fill="#AEB4B6"/>
<path d="M22.54 4.92667L12.8333 14.5933C12.5835 14.8417 12.2455 14.9811 11.8933 14.9811C11.541 14.9811 11.2031 14.8417 10.9533 14.5933L1.33329 5C1.30371 5.10869 1.28803 5.2207 1.28662 5.33333V18.6667C1.28662 19.0203 1.4271 19.3594 1.67715 19.6095C1.92719 19.8595 2.26633 20 2.61995 20H21.2866C21.6402 20 21.9794 19.8595 22.2294 19.6095C22.4795 19.3594 22.62 19.0203 22.62 18.6667V5.33333C22.6146 5.19444 22.5877 5.05722 22.54 4.92667ZM3.53329 18.6667H2.60662V17.7133L7.45329 12.9067L8.39329 13.8467L3.53329 18.6667ZM21.2733 18.6667H20.34L15.48 13.8467L16.42 12.9067L21.2666 17.7133L21.2733 18.6667Z" fill="#AEB4B6"/>
</svg>
