<svg width="48" height="51" viewBox="0 0 48 51" fill="none" xmlns="http://www.w3.org/2000/svg">
<g clip-path="url(#clip0_383_1928)">
<path d="M0 4.76281C0 2.13235 1.79083 0 4 0H28C30.2083 0 32 2.13235 32 4.76281V20.5396L28.4667 22.2265H22.6667C21.9333 22.2265 21.3333 22.9409 21.3333 23.8141V30.1645C21.3333 30.2538 21.3417 30.3332 21.35 30.4225C21.5417 36.1875 23.3583 44.7903 29.575 50.4164C29.0917 50.6644 28.5583 50.8033 28 50.8033H20V42.8653C20 40.2358 18.2083 38.1025 16 38.1025C13.7917 38.1025 12 40.2358 12 42.8653V50.8033H4C1.79083 50.8033 0 48.67 0 46.0405V4.76281ZM6.66667 22.2265C5.93 22.2265 5.33333 22.9409 5.33333 23.8141V26.9893C5.33333 27.8625 5.93 28.5769 6.66667 28.5769H9.33333C10.0667 28.5769 10.6667 27.8625 10.6667 26.9893V23.8141C10.6667 22.9409 10.0667 22.2265 9.33333 22.2265H6.66667ZM13.3333 26.9893C13.3333 27.8625 13.9333 28.5769 14.6667 28.5769H17.3333C18.0667 28.5769 18.6667 27.8625 18.6667 26.9893V23.8141C18.6667 22.9409 18.0667 22.2265 17.3333 22.2265H14.6667C13.9333 22.2265 13.3333 22.9409 13.3333 23.8141V26.9893ZM5.33333 14.2884C5.33333 15.1616 5.93 15.876 6.66667 15.876H9.33333C10.0667 15.876 10.6667 15.1616 10.6667 14.2884V11.1132C10.6667 10.24 10.0667 9.52563 9.33333 9.52563H6.66667C5.93 9.52563 5.33333 10.24 5.33333 11.1132V14.2884ZM14.6667 9.52563C13.9333 9.52563 13.3333 10.24 13.3333 11.1132V14.2884C13.3333 15.1616 13.9333 15.876 14.6667 15.876H17.3333C18.0667 15.876 18.6667 15.1616 18.6667 14.2884V11.1132C18.6667 10.24 18.0667 9.52563 17.3333 9.52563H14.6667ZM21.3333 14.2884C21.3333 15.1616 21.9333 15.876 22.6667 15.876H25.3333C26.0667 15.876 26.6667 15.1616 26.6667 14.2884V11.1132C26.6667 10.24 26.0667 9.52563 25.3333 9.52563H22.6667C21.9333 9.52563 21.3333 10.24 21.3333 11.1132V14.2884ZM35.2583 22.3951C35.7333 22.1669 36.2667 22.1669 36.7417 22.3951L46.7417 27.158C47.5 27.5251 48 28.3983 48 29.3707C48 35.6516 45.8417 46.1199 36.7667 50.6247C36.275 50.8629 35.725 50.8629 35.2333 50.6247C26.1583 46.1199 24 35.6516 24 29.3707C24 28.3983 24.425 27.5251 25.2583 27.158L35.2583 22.3951ZM36 27.1679V45.8123C41.6833 42.5379 43.625 35.989 43.95 30.869L36 27.1679Z" fill="#AEB4B6"/>
</g>
<defs>
<clipPath id="clip0_383_1928">
<rect width="48" height="50.8033" fill="white"/>
</clipPath>
</defs>
</svg>
