<svg width="48" height="48" viewBox="0 0 48 48" fill="none" xmlns="http://www.w3.org/2000/svg">
<path d="M30.6665 5.33325H9.33317C8.62593 5.33325 7.94765 5.6142 7.44755 6.1143C6.94746 6.6144 6.6665 7.29267 6.6665 7.99992V39.9999C6.6665 40.7072 6.94746 41.3854 7.44755 41.8855C7.94765 42.3856 8.62593 42.6666 9.33317 42.6666H30.6665C31.3737 42.6666 32.052 42.3856 32.5521 41.8855C33.0522 41.3854 33.3332 40.7072 33.3332 39.9999V31.9999H20.8398C20.4862 31.9999 20.1471 31.8594 19.897 31.6094C19.647 31.3593 19.5065 31.0202 19.5065 30.6666C19.5065 30.313 19.647 29.9738 19.897 29.7238C20.1471 29.4737 20.4862 29.3333 20.8398 29.3333H33.3332V7.99992C33.3332 7.29267 33.0522 6.6144 32.5521 6.1143C32.052 5.6142 31.3737 5.33325 30.6665 5.33325Z" fill="#DADADA"/>
<path d="M37.5468 23.0401C37.2918 22.8217 36.9637 22.7075 36.6281 22.7205C36.2925 22.7334 35.9742 22.8725 35.7367 23.11C35.4993 23.3475 35.3602 23.6658 35.3472 24.0014C35.3343 24.3369 35.4484 24.665 35.6668 24.9201L40.1735 29.3334H33.3335V32.0001H40.1735L35.6668 36.6134C35.5273 36.733 35.4139 36.88 35.3339 37.0455C35.2538 37.2109 35.2089 37.3911 35.2018 37.5747C35.1947 37.7583 35.2256 37.9414 35.2926 38.1125C35.3597 38.2836 35.4614 38.439 35.5913 38.569C35.7212 38.6989 35.8766 38.8006 36.0477 38.8676C36.2188 38.9346 36.4019 38.9656 36.5856 38.9585C36.7692 38.9514 36.9494 38.9064 37.1148 38.8264C37.2802 38.7464 37.4273 38.633 37.5468 38.4934L45.3335 30.7601L37.5468 23.0401Z" fill="#DADADA"/>
</svg>
