<svg width="44" height="48" viewBox="0 0 44 48" fill="none" xmlns="http://www.w3.org/2000/svg">
<path d="M11.45 16.95C11.85 16.95 12.2 16.8 12.5 16.5C12.8 16.2 12.95 15.85 12.95 15.45C12.95 15.05 12.8 14.7 12.5 14.4C12.2 14.1 11.85 13.95 11.45 13.95C11.05 13.95 10.7 14.1 10.4 14.4C10.1 14.7 9.95 15.05 9.95 15.45C9.95 15.85 10.1 16.2 10.4 16.5C10.7 16.8 11.05 16.95 11.45 16.95ZM11.45 25.5C11.85 25.5 12.2 25.35 12.5 25.05C12.8 24.75 12.95 24.4 12.95 24C12.95 23.6 12.8 23.25 12.5 22.95C12.2 22.65 11.85 22.5 11.45 22.5C11.05 22.5 10.7 22.65 10.4 22.95C10.1 23.25 9.95 23.6 9.95 24C9.95 24.4 10.1 24.75 10.4 25.05C10.7 25.35 11.05 25.5 11.45 25.5ZM11.45 34.05C11.85 34.05 12.2 33.9 12.5 33.6C12.8 33.3 12.95 32.95 12.95 32.55C12.95 32.15 12.8 31.8 12.5 31.5C12.2 31.2 11.85 31.05 11.45 31.05C11.05 31.05 10.7 31.2 10.4 31.5C10.1 31.8 9.95 32.15 9.95 32.55C9.95 32.95 10.1 33.3 10.4 33.6C10.7 33.9 11.05 34.05 11.45 34.05ZM5 42C4.2 42 3.5 41.7 2.9 41.1C2.3 40.5 2 39.8 2 39V9C2 8.2 2.3 7.5 2.9 6.9C3.5 6.3 4.2 6 5 6H28.1L38 15.9V39C38 39.8 37.7 40.5 37.1 41.1C36.5 41.7 35.8 42 35 42H5ZM5 39H35V17.55H27.95C27.5167 17.55 27.1583 17.4083 26.875 17.125C26.5917 16.8417 26.45 16.4833 26.45 16.05V9H5V39ZM5 17.55V39V9V17.55V9V17.55Z" fill="#C4C4C4"/>
</svg>
